<svg width="878" height="404" viewBox="0 0 878 404" fill="none" xmlns="http://www.w3.org/2000/svg">
<path d="M204.939 276.89H272.892V291.463H204.939V398.603H190.377V291.463H0V283.367L187.411 5.66733H204.939V276.89ZM22.6511 276.89H190.377V23.2091L167.726 60.4516L22.6511 276.89Z" fill="#EBEDF2"/>
<path d="M549.02 238.298C549.02 291.013 538.773 331.854 518.279 360.82C497.785 389.607 469.022 404 431.989 404C395.136 404 366.283 389.427 345.429 360.281C324.576 331.134 314.149 290.114 314.149 237.218V165.972C314.149 113.796 324.396 73.1356 344.89 43.9893C365.564 14.6631 394.417 0 431.45 0C468.662 0 497.515 14.6631 518.009 43.9893C538.683 73.1356 549.02 114.156 549.02 167.051V238.298ZM534.458 165.972C534.458 118.294 525.47 81.1418 507.493 54.5144C489.695 27.8869 464.348 14.5731 431.45 14.5731C398.372 14.5731 372.934 27.9768 355.137 54.7842C337.519 81.4117 328.711 118.924 328.711 167.321V237.758C328.711 285.256 337.789 322.408 355.946 349.216C374.103 376.023 399.45 389.427 431.989 389.427C464.707 389.427 489.965 376.023 507.762 349.216C525.56 322.408 534.458 284.806 534.458 236.409V165.972Z" fill="#EBEDF2"/>
<path d="M810.047 276.89H878V291.463H810.047V398.603H795.485V291.463H605.108V283.367L792.519 5.66733H810.047V276.89ZM627.759 276.89H795.485V23.2091L772.834 60.4516L627.759 276.89Z" fill="#EBEDF2"/>
</svg>
